<svg id="svg" xmlns="http://www.w3.org/2000/svg" xmlns:xlink="http://www.w3.org/1999/xlink" width="400" height="92.48554913294797" viewBox="0, 0, 400,92.48554913294797"><g id="svgg"><path id="path0" d="M42.293 34.513 C 42.134 34.677,42.004 35.537,42.004 36.425 C 42.004 37.915,41.908 38.066,40.751 38.398 L 39.499 38.757 39.397 49.481 L 39.294 60.205 40.553 59.967 C 45.631 59.009,49.720 59.374,53.409 61.115 C 54.489 61.625,55.486 62.042,55.625 62.042 C 55.763 62.042,55.877 57.259,55.877 51.412 L 55.877 40.781 53.835 38.791 C 50.603 35.641,43.687 33.078,42.293 34.513 M139.118 38.657 C 131.955 40.938,131.237 53.968,138.080 57.477 C 143.268 60.137,149.665 57.681,151.213 52.435 C 153.917 43.269,147.520 35.982,139.118 38.657 M195.003 38.632 C 187.475 41.157,186.754 53.806,193.928 57.466 C 197.012 59.039,204.432 58.461,204.432 56.647 C 204.432 55.992,203.823 55.984,200.838 56.600 C 197.383 57.313,194.468 56.265,193.190 53.850 C 192.199 51.978,191.996 45.590,192.856 43.339 C 194.488 39.065,201.034 37.721,201.977 41.467 C 202.520 43.620,202.781 43.768,204.077 42.653 C 207.288 39.891,200.378 36.829,195.003 38.632 M215.267 38.489 C 214.746 38.694,213.642 41.212,211.352 47.422 C 208.276 55.762,208.120 56.082,206.955 56.419 C 204.519 57.124,205.640 57.984,209.156 58.108 C 212.604 58.230,214.014 57.078,211.180 56.456 C 209.630 56.115,209.599 55.992,210.472 53.661 L 211.229 51.638 214.985 51.638 L 218.742 51.638 219.390 53.695 C 220.214 56.307,220.243 56.156,218.861 56.459 C 215.990 57.090,217.691 57.996,221.746 57.996 C 225.918 57.996,226.930 57.460,224.600 56.482 C 223.352 55.958,223.223 55.681,220.231 47.050 C 217.074 37.941,216.997 37.810,215.267 38.489 M253.757 38.694 C 248.518 41.023,249.688 46.267,256.203 49.657 C 262.230 52.792,262.421 56.828,256.544 56.837 L 254.143 56.840 253.624 55.202 C 252.884 52.863,250.867 53.087,250.867 55.509 C 250.867 59.004,259.190 59.644,262.065 56.370 C 264.874 53.171,263.203 49.882,257.043 46.483 C 252.605 44.034,251.921 41.555,255.236 39.934 C 257.344 38.903,258.983 39.411,259.449 41.241 C 260.005 43.424,261.594 43.639,262.235 41.619 C 263.111 38.859,257.637 36.970,253.757 38.694 M304.720 38.681 C 296.179 41.842,296.413 55.428,305.054 58.029 C 308.743 59.139,315.148 57.964,314.135 56.363 C 313.897 55.987,313.248 56.008,311.067 56.463 C 304.515 57.829,301.320 54.538,301.839 46.960 C 302.161 42.261,303.820 40.018,307.357 39.500 C 309.988 39.114,311.113 39.682,311.601 41.643 C 312.204 44.069,314.626 43.605,314.374 41.111 C 314.121 38.602,308.653 37.225,304.720 38.681 M336.031 38.400 C 335.689 38.495,334.601 40.876,333.366 44.232 C 328.944 56.248,329.094 55.917,327.891 56.336 C 325.312 57.235,326.474 58.231,329.957 58.108 C 333.426 57.986,334.745 57.019,332.203 56.460 C 330.626 56.114,330.567 55.928,331.303 53.627 L 331.939 51.638 335.692 51.638 L 339.445 51.638 340.214 53.661 C 341.016 55.772,340.729 56.647,339.233 56.647 C 338.955 56.647,338.728 56.994,338.728 57.418 C 338.728 58.137,338.985 58.189,342.582 58.189 C 346.166 58.189,346.435 58.135,346.435 57.425 C 346.435 56.930,346.093 56.576,345.462 56.418 C 344.211 56.104,344.285 56.260,341.109 47.203 C 339.623 42.966,338.288 39.196,338.141 38.825 C 337.886 38.178,337.275 38.055,336.031 38.400 M56.915 39.058 C 56.791 39.381,57.217 39.821,58.030 40.208 L 59.345 40.835 59.345 48.376 L 59.345 55.917 58.189 56.320 C 57.422 56.587,57.033 56.983,57.033 57.496 C 57.033 58.580,68.356 58.405,70.441 57.289 C 74.674 55.024,73.843 48.729,69.155 47.553 L 68.095 47.287 69.110 46.755 C 72.069 45.205,71.906 40.620,68.841 39.166 C 67.068 38.324,57.230 38.236,56.915 39.058 M76.547 39.114 C 76.394 39.511,76.742 39.866,77.661 40.250 L 78.998 40.808 78.998 48.337 L 78.998 55.866 77.653 56.428 C 75.132 57.482,76.231 58.189,80.388 58.189 C 84.341 58.189,85.560 57.264,82.852 56.320 L 81.696 55.917 81.696 48.274 L 81.696 40.631 82.852 40.195 C 83.487 39.955,84.008 39.483,84.008 39.147 C 84.008 38.266,76.884 38.234,76.547 39.114 M87.091 39.147 C 87.091 39.483,87.611 39.955,88.247 40.195 L 89.403 40.631 89.403 48.288 L 89.403 55.944 88.247 56.380 C 87.525 56.652,87.091 57.090,87.091 57.543 C 87.091 58.583,98.484 58.368,100.499 57.289 C 104.504 55.146,104.086 49.324,99.814 47.746 C 98.324 47.196,98.214 47.082,98.947 46.849 C 102.242 45.803,102.145 40.468,98.806 39.073 C 96.830 38.247,87.091 38.309,87.091 39.147 M105.973 39.133 C 105.973 39.477,106.493 39.955,107.129 40.195 L 108.285 40.631 108.285 48.274 L 108.285 55.917 107.129 56.320 C 106.391 56.577,105.973 56.988,105.973 57.456 C 105.973 58.149,106.349 58.189,112.909 58.189 L 119.846 58.189 119.846 55.491 C 119.846 52.140,119.141 51.879,118.024 54.817 L 117.256 56.840 114.295 56.840 L 111.335 56.840 111.333 48.748 L 111.332 40.655 112.534 40.161 C 114.692 39.274,113.705 38.737,109.699 38.618 C 106.473 38.523,105.973 38.592,105.973 39.133 M122.158 39.133 C 122.158 39.477,122.678 39.955,123.314 40.195 L 124.470 40.631 124.470 48.274 L 124.470 55.917 123.314 56.320 C 120.500 57.301,121.831 58.226,125.884 58.106 C 130.022 57.984,130.910 57.430,128.550 56.444 L 127.168 55.866 127.168 48.337 L 127.168 40.808 128.543 40.234 C 130.858 39.267,129.990 38.740,125.884 38.618 C 122.658 38.523,122.158 38.592,122.158 39.133 M154.528 41.040 C 154.528 44.325,155.536 44.605,156.610 41.618 L 157.303 39.692 159.191 39.692 L 161.079 39.692 161.079 47.818 L 161.079 55.944 159.912 56.384 C 157.482 57.302,158.649 57.996,162.620 57.996 C 166.592 57.996,167.759 57.302,165.329 56.384 L 164.162 55.944 164.162 47.818 L 164.162 39.692 166.050 39.692 L 167.938 39.692 168.631 41.618 C 169.705 44.605,170.713 44.325,170.713 41.040 L 170.713 38.536 162.620 38.536 L 154.528 38.536 154.528 41.040 M172.897 38.793 C 172.378 39.311,172.667 39.741,173.796 40.135 L 174.952 40.538 174.952 48.315 L 174.952 56.093 173.795 56.530 C 170.773 57.670,172.713 58.189,180.003 58.189 L 186.898 58.189 186.898 55.463 C 186.898 52.082,186.002 51.827,184.972 54.913 L 184.329 56.840 181.182 56.952 L 178.035 57.064 178.035 52.617 L 178.035 48.170 179.731 48.170 C 181.270 48.170,181.465 48.277,181.831 49.326 C 182.641 51.651,183.475 50.770,183.350 47.719 C 183.227 44.722,182.624 43.912,181.952 45.840 C 181.577 46.916,181.397 47.013,179.789 47.013 L 178.035 47.013 178.035 43.353 L 178.035 39.692 181.102 39.692 L 184.169 39.692 184.631 41.233 C 185.379 43.728,186.513 43.380,186.513 40.655 L 186.513 38.536 179.833 38.536 C 176.159 38.536,173.038 38.651,172.897 38.793 M234.168 38.793 C 233.650 39.311,233.939 39.741,235.067 40.135 L 236.224 40.538 236.224 48.315 L 236.224 56.093 235.067 56.530 C 232.045 57.670,233.984 58.189,241.274 58.189 L 248.170 58.189 248.170 55.491 C 248.170 52.116,247.422 51.844,246.313 54.817 L 245.558 56.840 242.529 56.840 L 239.499 56.840 239.390 52.505 L 239.281 48.170 240.981 48.170 C 242.507 48.170,242.730 48.288,243.160 49.326 C 244.069 51.522,244.747 50.777,244.622 47.719 C 244.499 44.722,243.896 43.912,243.224 45.840 C 242.849 46.916,242.669 47.013,241.061 47.013 L 239.306 47.013 239.306 43.353 L 239.306 39.692 242.374 39.692 L 245.441 39.692 245.903 41.233 C 246.651 43.728,247.784 43.380,247.784 40.655 L 247.784 38.536 241.105 38.536 C 237.431 38.536,234.310 38.651,234.168 38.793 M265.768 38.793 C 265.249 39.311,265.538 39.741,266.667 40.135 L 267.823 40.538 267.823 48.315 L 267.823 56.093 266.628 56.544 C 264.383 57.391,265.475 57.988,269.492 58.106 C 273.540 58.226,274.768 57.402,272.062 56.380 L 270.906 55.944 270.906 47.771 L 270.906 39.599 273.233 39.767 C 279.110 40.193,279.413 48.159,273.587 49.091 C 271.399 49.441,271.760 50.328,274.028 50.173 C 280.855 49.703,283.199 42.152,277.429 39.211 C 276.084 38.524,266.383 38.177,265.768 38.793 M282.466 39.134 C 282.466 39.463,282.987 39.913,283.622 40.135 L 284.778 40.538 284.778 48.241 L 284.778 55.944 283.611 56.384 C 280.589 57.525,282.340 57.996,289.601 57.996 L 296.532 57.996 296.646 55.363 C 296.783 52.238,295.846 51.815,294.807 54.532 C 293.857 57.019,293.834 57.033,290.729 57.033 L 287.861 57.033 287.861 52.601 L 287.861 48.170 289.393 48.170 C 290.705 48.170,291.010 48.335,291.522 49.326 C 292.635 51.477,293.304 50.827,293.177 47.719 C 293.052 44.663,292.372 43.808,291.669 45.823 C 291.290 46.910,291.107 47.013,289.558 47.013 L 287.861 47.013 287.861 43.353 L 287.861 39.692 290.782 39.692 L 293.704 39.692 294.309 41.233 C 295.204 43.511,295.954 43.247,295.954 40.655 L 295.954 38.536 289.210 38.536 C 283.372 38.536,282.466 38.616,282.466 39.134 M316.763 39.134 C 316.763 39.463,317.283 39.913,317.919 40.135 L 319.075 40.538 319.075 48.241 L 319.075 55.944 317.908 56.384 C 315.478 57.302,316.645 57.996,320.617 57.996 C 324.517 57.996,326.144 57.076,323.336 56.459 L 322.158 56.201 322.158 48.369 L 322.158 40.538 323.314 40.135 C 325.902 39.233,324.726 38.536,320.617 38.536 C 317.391 38.536,316.763 38.633,316.763 39.134 M347.977 39.133 C 347.977 39.477,348.497 39.955,349.133 40.195 L 350.289 40.631 350.289 48.288 L 350.289 55.944 349.133 56.380 C 348.437 56.643,347.977 57.093,347.977 57.511 C 347.977 58.159,348.451 58.199,355.010 58.101 L 362.042 57.996 362.042 55.497 C 362.042 52.140,361.140 51.821,360.070 54.799 L 359.338 56.840 356.355 56.953 L 353.372 57.065 353.372 48.801 L 353.372 40.538 354.563 40.123 C 356.822 39.335,355.682 38.736,351.703 38.618 C 348.477 38.523,347.977 38.592,347.977 39.133 M144.097 39.684 C 149.201 41.148,150.273 53.398,145.550 56.278 C 141.202 58.929,137.135 56.009,136.572 49.832 C 135.898 42.444,139.024 38.229,144.097 39.684 M42.092 47.301 L 42.197 54.911 44.498 55.198 C 46.857 55.492,49.926 56.791,51.638 58.221 L 52.601 59.025 51.638 58.797 C 49.431 58.275,45.227 57.794,44.324 57.959 C 43.790 58.057,42.702 58.243,41.908 58.373 L 40.462 58.609 40.462 49.407 C 40.462 40.245,40.520 39.692,41.482 39.692 C 41.879 39.692,42.010 41.331,42.092 47.301 M66.925 40.614 C 69.218 42.586,67.734 46.628,64.718 46.628 C 63.967 46.628,63.584 46.823,63.584 47.206 C 63.584 47.617,64.002 47.785,65.029 47.786 C 69.029 47.790,71.283 52.021,69.078 55.387 C 68.367 56.472,66.238 57.130,63.969 56.966 L 62.235 56.840 62.131 48.266 L 62.028 39.692 63.940 39.692 C 65.402 39.692,66.106 39.909,66.925 40.614 M97.139 40.818 C 99.270 42.949,97.806 46.628,94.827 46.628 C 92.743 46.628,93.388 47.662,95.604 47.875 C 102.458 48.533,101.363 57.033,94.425 57.033 L 92.486 57.033 92.486 48.362 L 92.486 39.692 94.249 39.692 C 95.685 39.692,96.223 39.901,97.139 40.818 M217.838 50.193 C 217.568 50.689,211.946 50.537,211.946 50.033 C 211.946 49.785,212.666 47.705,213.546 45.410 L 215.146 41.236 216.570 45.570 C 217.354 47.953,217.924 50.034,217.838 50.193 M337.605 46.146 C 339.141 50.692,339.226 50.482,335.861 50.482 C 332.284 50.482,332.363 50.711,334.223 45.738 C 335.985 41.032,335.871 41.018,337.605 46.146 " stroke="none" fill="#000000" fill-rule="evenodd"></path></g></svg>