<svg id="svg" xmlns="http://www.w3.org/2000/svg" xmlns:xlink="http://www.w3.org/1999/xlink" width="400" height="400" viewBox="0, 0, 400,400"><g id="svgg"><path id="path0" d="M115.448 163.600 C 115.452 166.240,115.602 167.224,115.780 165.786 C 115.958 164.348,115.954 162.188,115.772 160.986 C 115.589 159.784,115.443 160.960,115.448 163.600 M168.229 163.600 C 168.235 165.800,168.390 166.605,168.574 165.389 C 168.758 164.173,168.753 162.373,168.563 161.389 C 168.373 160.405,168.223 161.400,168.229 163.600 M115.386 184.000 C 115.386 185.540,115.550 186.170,115.751 185.400 C 115.953 184.630,115.953 183.370,115.751 182.600 C 115.550 181.830,115.386 182.460,115.386 184.000 " stroke="none" fill="#000000" fill-rule="evenodd"></path></g></svg>